Coordinates
nRows=207
nColumns=2
inDegrees=yes
endheader
time	ankle_angle_r	
3.09375	 -0.541869	
3.12702	 -0.553319	
3.16028	 -0.549316	
3.19355	 -0.534058	
3.22681	 -0.485899	
3.26008	 -0.510021	
3.29335	 -0.492767	
3.32661	 -0.492864	
3.35988	 -0.508219	
3.39315	 -0.482574	
3.42641	 -0.468150	
3.45968	 -0.447474	
3.49294	 -0.478088	
3.52621	 -0.508474	
3.55948	 -0.528799	
3.59274	 -0.503540	
3.62601	 -0.528605	
3.65927	 -0.554866	
3.69254	 -0.509186	
3.72581	 -0.518799	
3.75907	 -0.530477	
3.79234	 -0.524735	
3.8256	 -0.518799	
3.85887	 -0.524928	
3.89214	 -0.525025	
3.9254	 -0.516185	
3.95867	 -0.535637	
3.99194	 -0.501313	
4.0252	 -0.510153	
4.05847	 -0.547476	
4.09173	 -0.518799	
4.125	 -0.518799	
4.15827	 -0.556316	
4.19153	 -0.518799	
4.2248	 -0.503540	
4.25806	 -0.549996	
4.29133	 -0.503540	
4.3246	 -0.518506	
4.35786	 -0.549316	
4.39113	 -0.495958	
4.4244	 -0.534058	
4.45766	 -0.534058	
4.49093	 -0.503540	
4.52419	 -0.504407	
4.55746	 -0.502479	
4.59073	 -0.482533	
4.62399	 -0.488281	
4.65726	 -0.510349	
4.69052	 -0.466310	
4.72379	 -0.488281	
4.75706	 -0.512280	
4.79032	 -0.451341	
4.82359	 -0.451438	
4.85685	 -0.497311	
4.89012	 -0.463896	
4.92339	 -0.439317	
4.95665	 -0.451825	
4.98992	 -0.484707	
5.02319	 -0.457764	
5.05645	 -0.452115	
5.08972	 -0.457764	
5.12298	 -0.498085	
5.15625	 -0.473840	
5.18952	 -0.463026	
5.22278	 -0.437577	
5.25605	 -0.518799	
5.28931	 -0.457764	
5.32258	 -0.467514	
5.35585	 -0.477801	
5.38911	 -0.468341	
5.42238	 -0.442505	
5.45565	 -0.488281	
5.48891	 -0.457764	
5.52218	 -0.442505	
5.55544	 -0.477221	
5.58871	 -0.468921	
5.62198	 -0.442505	
5.65524	 -0.518799	
5.68851	 -0.522622	
5.72177	 -0.495711	
5.75504	 -0.537676	
5.78831	 -0.503540	
5.82157	 -0.518799	
5.85484	 -0.566521	
5.8881	 -0.506772	
5.92137	 -0.525069	
5.95464	 -0.540134	
5.9879	 -0.518799	
6.02117	 -0.536903	
6.05444	 -0.546568	
6.0877	 -0.521450	
6.12097	 -0.546762	
6.15423	 -0.536516	
6.1875	 -0.523522	
6.22077	 -0.566840	
6.25403	 -0.564575	
6.2873	 -0.536129	
6.32056	 -0.579834	
6.35383	 -0.551194	
6.3871	 -0.579834	
6.42036	 -0.549316	
6.45363	 -0.535646	
6.4869	 -0.579834	
6.52016	 -0.553500	
6.55343	 -0.564575	
6.58669	 -0.535259	
6.61996	 -0.577625	
6.65323	 -0.564575	
6.68649	 -0.548405	
6.71976	 -0.550945	
6.75302	 -0.564575	
6.78629	 -0.534679	
6.81956	 -0.549316	
6.85282	 -0.565003	
6.88609	 -0.534389	
6.91935	 -0.564575	
6.95262	 -0.549592	
6.98589	 -0.534099	
7.01915	 -0.564575	
7.05242	 -0.579834	
7.08569	 -0.519048	
7.11895	 -0.534403	
7.15222	 -0.548432	
7.18548	 -0.532979	
7.21875	 -0.594457	
7.25202	 -0.563843	
7.28528	 -0.517970	
7.31855	 -0.549316	
7.35181	 -0.551361	
7.38508	 -0.534058	
7.41835	 -0.563359	
7.45161	 -0.563263	
7.48488	 -0.534058	
7.51815	 -0.563069	
7.55141	 -0.576629	
7.58468	 -0.547617	
7.61794	 -0.579834	
7.65121	 -0.564575	
7.68448	 -0.522778	
7.71774	 -0.549316	
7.75101	 -0.564575	
7.78427	 -0.547037	
7.81754	 -0.551693	
7.85081	 -0.567048	
7.88407	 -0.534058	
7.91734	 -0.557315	
7.9506	 -0.561812	
7.98387	 -0.546457	
8.01714	 -0.552273	
8.0504	 -0.564575	
8.08367	 -0.528248	
8.11694	 -0.537304	
8.1502	 -0.564575	
8.18347	 -0.522238	
8.21673	 -0.541130	
8.25	 -0.576201	
8.28327	 -0.534058	
8.31653	 -0.534058	
8.3498	 -0.545827	
8.38306	 -0.484261	
8.41633	 -0.545200	
8.4496	 -0.538271	
8.48286	 -0.503540	
8.51613	 -0.503540	
8.5494	 -0.492784	
8.58266	 -0.488281	
8.61593	 -0.528192	
8.64919	 -0.482609	
8.68246	 -0.437026	
8.71573	 -0.503540	
8.74899	 -0.478097	
8.78226	 -0.498641	
8.81552	 -0.539334	
8.84879	 -0.508913	
8.88206	 -0.514480	
8.91532	 -0.554883	
8.94859	 -0.499608	
8.98185	 -0.518799	
9.01512	 -0.549316	
9.04839	 -0.512845	
9.08165	 -0.515640	
9.11492	 -0.558428	
9.14819	 -0.482038	
9.18145	 -0.503540	
9.21472	 -0.540495	
9.24798	 -0.494815	
9.28125	 -0.512169	
9.31452	 -0.540785	
9.34778	 -0.511975	
9.38105	 -0.518799	
9.41431	 -0.549316	
9.44758	 -0.503540	
9.48085	 -0.502702	
9.51411	 -0.519443	
9.54738	 -0.518799	
9.58065	 -0.519057	
9.61391	 -0.534058	
9.64718	 -0.518799	
9.68044	 -0.518799	
9.71371	 -0.496168	
9.74698	 -0.427246	
9.78024	 -0.380567	
9.81351	 -0.404906	
9.84677	 -0.388455	
9.88004	 -0.381470	
9.91331	 -0.420455	
9.94657	 -0.388164	
